<svg xmlns="http://www.w3.org/2000/svg" xmlns:xlink="http://www.w3.org/1999/xlink" width="500" zoomAndPan="magnify" viewBox="0 0 375 374.999991" height="500" preserveAspectRatio="xMidYMid meet" version="1.0"><defs><g/><clipPath id="8c74f11475"><path d="M 37.5 37.5 L 337.5 37.5 L 337.5 337.5 L 37.5 337.5 Z M 37.5 37.5 " clip-rule="nonzero"/></clipPath><clipPath id="1c0f32a8d7"><path d="M 118.40625 110 L 256.40625 110 L 256.40625 249.105469 L 118.40625 249.105469 Z M 118.40625 110 " clip-rule="nonzero"/></clipPath><clipPath id="b1980cd7d8"><path d="M 154 99.105469 L 245 99.105469 L 245 215 L 154 215 Z M 154 99.105469 " clip-rule="nonzero"/></clipPath></defs><rect x="-37.5" width="450" fill="#ffffff" y="-37.499999" height="449.999989" fill-opacity="1"/><rect x="-37.5" width="450" fill="#000000" y="-37.499999" height="449.999989" fill-opacity="1"/><g clip-path="url(#8c74f11475)"><path fill="#587dff" d="M 187.476562 337.433594 C 104.78125 337.433594 37.492188 270.15625 37.492188 187.449219 C 37.492188 104.742188 104.78125 37.472656 187.476562 37.472656 C 270.175781 37.472656 337.464844 104.75 337.464844 187.457031 C 337.464844 270.164062 270.183594 337.441406 187.476562 337.441406 Z M 187.476562 44.6875 C 108.757812 44.691406 44.714844 108.730469 44.714844 187.449219 C 44.714844 266.167969 108.757812 330.214844 187.476562 330.214844 C 266.199219 330.214844 330.242188 266.167969 330.242188 187.449219 C 330.242188 108.730469 266.199219 44.691406 187.476562 44.691406 Z M 187.476562 44.6875 " fill-opacity="1" fill-rule="nonzero"/></g><path fill="#67dcff" d="M 72.121094 187.449219 C 69.023438 130.632812 111.292969 78.988281 167.121094 69.058594 C 208.898438 60.789062 254.058594 77.191406 281.011719 110.136719 C 334.90625 174.609375 306.90625 274.265625 226.945312 300.53125 C 192.433594 312.070312 152.605469 306.335938 123.136719 284.960938 C 113.496094 278.164062 104.886719 269.492188 97.859375 260.082031 C 97.738281 259.921875 97.773438 259.699219 97.933594 259.574219 C 98.085938 259.460938 98.308594 259.488281 98.429688 259.632812 C 105.292969 267.960938 113.410156 275.558594 122.308594 281.679688 C 146.347656 298.464844 176.914062 305.203125 205.816406 300.464844 C 269.78125 290.457031 313.15625 226.917969 299.289062 163.695312 C 291.503906 125.96875 263.4375 93.390625 227.242188 80.175781 C 168.253906 58.015625 101.328125 88.914062 79.828125 148.132812 C 75.242188 160.699219 72.921875 174.066406 72.859375 187.449219 C 72.859375 187.652344 72.691406 187.808594 72.496094 187.808594 C 72.300781 187.808594 72.136719 187.644531 72.136719 187.449219 Z M 72.121094 187.449219 " fill-opacity="1" fill-rule="nonzero"/><g clip-path="url(#1c0f32a8d7)"><path fill="#5ce1e6" d="M 256.59375 180.003906 C 256.59375 181.132812 256.566406 182.265625 256.511719 183.394531 C 256.457031 184.523438 256.371094 185.652344 256.261719 186.777344 C 256.152344 187.902344 256.011719 189.023438 255.847656 190.140625 C 255.679688 191.261719 255.488281 192.375 255.265625 193.484375 C 255.046875 194.59375 254.800781 195.695312 254.523438 196.792969 C 254.25 197.890625 253.949219 198.976562 253.621094 200.058594 C 253.292969 201.144531 252.9375 202.214844 252.554688 203.28125 C 252.175781 204.34375 251.769531 205.398438 251.335938 206.445312 C 250.902344 207.488281 250.445312 208.523438 249.960938 209.546875 C 249.476562 210.566406 248.96875 211.578125 248.4375 212.574219 C 247.902344 213.570312 247.347656 214.554688 246.765625 215.523438 C 246.183594 216.496094 245.578125 217.449219 244.949219 218.390625 C 244.320312 219.332031 243.671875 220.253906 242.996094 221.164062 C 242.324219 222.070312 241.628906 222.960938 240.910156 223.835938 C 240.195312 224.710938 239.457031 225.566406 238.695312 226.40625 C 237.9375 227.242188 237.15625 228.0625 236.355469 228.859375 C 235.558594 229.660156 234.738281 230.441406 233.902344 231.199219 C 233.0625 231.957031 232.207031 232.695312 231.332031 233.414062 C 230.460938 234.132812 229.566406 234.828125 228.660156 235.5 C 227.75 236.175781 226.828125 236.824219 225.886719 237.453125 C 224.945312 238.082031 223.992188 238.6875 223.023438 239.269531 C 222.050781 239.847656 221.066406 240.40625 220.070312 240.941406 C 219.074219 241.472656 218.0625 241.980469 217.042969 242.464844 C 216.019531 242.949219 214.984375 243.40625 213.941406 243.839844 C 212.898438 244.269531 211.84375 244.679688 210.777344 245.058594 C 209.710938 245.441406 208.640625 245.792969 207.558594 246.121094 C 206.476562 246.453125 205.386719 246.753906 204.289062 247.027344 C 203.191406 247.300781 202.089844 247.550781 200.980469 247.769531 C 199.871094 247.992188 198.757812 248.183594 197.636719 248.351562 C 196.519531 248.515625 195.398438 248.65625 194.273438 248.765625 C 193.148438 248.875 192.019531 248.960938 190.890625 249.015625 C 189.761719 249.070312 188.628906 249.097656 187.5 249.097656 C 186.371094 249.097656 185.238281 249.070312 184.109375 249.015625 C 182.980469 248.960938 181.851562 248.875 180.726562 248.765625 C 179.601562 248.65625 178.480469 248.515625 177.363281 248.351562 C 176.242188 248.183594 175.128906 247.992188 174.019531 247.769531 C 172.910156 247.550781 171.808594 247.300781 170.710938 247.027344 C 169.613281 246.753906 168.523438 246.453125 167.441406 246.121094 C 166.359375 245.792969 165.289062 245.441406 164.222656 245.058594 C 163.15625 244.679688 162.101562 244.269531 161.058594 243.839844 C 160.015625 243.40625 158.980469 242.949219 157.957031 242.464844 C 156.9375 241.980469 155.925781 241.472656 154.929688 240.941406 C 153.933594 240.40625 152.949219 239.847656 151.976562 239.269531 C 151.007812 238.6875 150.054688 238.082031 149.113281 237.453125 C 148.171875 236.824219 147.25 236.175781 146.339844 235.5 C 145.433594 234.828125 144.539062 234.132812 143.667969 233.414062 C 142.792969 232.695312 141.9375 231.957031 141.097656 231.199219 C 140.261719 230.441406 139.441406 229.660156 138.644531 228.859375 C 137.84375 228.0625 137.0625 227.242188 136.304688 226.40625 C 135.542969 225.566406 134.804688 224.710938 134.089844 223.835938 C 133.371094 222.960938 132.675781 222.070312 132.003906 221.164062 C 131.328125 220.253906 130.679688 219.332031 130.050781 218.390625 C 129.421875 217.449219 128.816406 216.496094 128.234375 215.523438 C 127.652344 214.554688 127.097656 213.570312 126.5625 212.574219 C 126.03125 211.578125 125.523438 210.566406 125.039062 209.546875 C 124.554688 208.523438 124.097656 207.488281 123.664062 206.445312 C 123.230469 205.398438 122.824219 204.34375 122.445312 203.28125 C 122.0625 202.214844 121.707031 201.144531 121.378906 200.058594 C 121.050781 198.976562 120.75 197.890625 120.476562 196.792969 C 120.199219 195.695312 119.953125 194.59375 119.734375 193.484375 C 119.511719 192.375 119.320312 191.261719 119.152344 190.140625 C 118.988281 189.023438 118.847656 187.902344 118.738281 186.777344 C 118.628906 185.652344 118.542969 184.523438 118.488281 183.394531 C 118.433594 182.265625 118.40625 181.132812 118.40625 180.003906 C 118.40625 178.871094 118.433594 177.742188 118.488281 176.613281 C 118.542969 175.484375 118.628906 174.355469 118.738281 173.230469 C 118.847656 172.105469 118.988281 170.984375 119.152344 169.863281 C 119.320312 168.746094 119.511719 167.632812 119.734375 166.523438 C 119.953125 165.414062 120.199219 164.3125 120.476562 163.214844 C 120.75 162.117188 121.050781 161.027344 121.378906 159.945312 C 121.707031 158.863281 122.0625 157.789062 122.445312 156.726562 C 122.824219 155.660156 123.230469 154.605469 123.664062 153.5625 C 124.097656 152.515625 124.554688 151.484375 125.039062 150.460938 C 125.523438 149.4375 126.03125 148.429688 126.5625 147.433594 C 127.097656 146.433594 127.652344 145.453125 128.234375 144.480469 C 128.816406 143.511719 129.421875 142.554688 130.050781 141.617188 C 130.679688 140.675781 131.328125 139.75 132.003906 138.84375 C 132.675781 137.933594 133.371094 137.042969 134.089844 136.171875 C 134.804688 135.296875 135.542969 134.441406 136.304688 133.601562 C 137.0625 132.765625 137.84375 131.945312 138.644531 131.144531 C 139.441406 130.347656 140.261719 129.566406 141.097656 128.808594 C 141.9375 128.046875 142.792969 127.308594 143.667969 126.59375 C 144.539062 125.875 145.433594 125.179688 146.339844 124.507812 C 147.25 123.832031 148.171875 123.179688 149.113281 122.554688 C 150.054688 121.925781 151.007812 121.320312 151.976562 120.738281 C 152.949219 120.15625 153.933594 119.601562 154.929688 119.066406 C 155.925781 118.535156 156.9375 118.027344 157.957031 117.542969 C 158.980469 117.058594 160.015625 116.601562 161.058594 116.167969 C 162.101562 115.734375 163.15625 115.328125 164.222656 114.949219 C 165.289062 114.566406 166.359375 114.210938 167.441406 113.882812 C 168.523438 113.554688 169.613281 113.253906 170.710938 112.980469 C 171.808594 112.703125 172.910156 112.457031 174.019531 112.234375 C 175.128906 112.015625 176.242188 111.824219 177.363281 111.65625 C 178.480469 111.492188 179.601562 111.351562 180.726562 111.242188 C 181.851562 111.128906 182.980469 111.046875 184.109375 110.992188 C 185.238281 110.9375 186.371094 110.910156 187.5 110.910156 C 188.628906 110.910156 189.761719 110.9375 190.890625 110.992188 C 192.019531 111.046875 193.148438 111.128906 194.273438 111.242188 C 195.398438 111.351562 196.519531 111.492188 197.636719 111.65625 C 198.757812 111.824219 199.871094 112.015625 200.980469 112.234375 C 202.089844 112.457031 203.191406 112.703125 204.289062 112.980469 C 205.386719 113.253906 206.476562 113.554688 207.558594 113.882812 C 208.640625 114.210938 209.710938 114.566406 210.777344 114.949219 C 211.84375 115.328125 212.898438 115.734375 213.941406 116.167969 C 214.984375 116.601562 216.019531 117.058594 217.042969 117.542969 C 218.0625 118.027344 219.074219 118.535156 220.070312 119.066406 C 221.066406 119.601562 222.050781 120.15625 223.023438 120.738281 C 223.992188 121.320312 224.945312 121.925781 225.886719 122.554688 C 226.828125 123.179688 227.75 123.832031 228.660156 124.507812 C 229.566406 125.179688 230.460938 125.875 231.332031 126.59375 C 232.207031 127.308594 233.0625 128.046875 233.902344 128.808594 C 234.738281 129.566406 235.558594 130.347656 236.355469 131.144531 C 237.15625 131.945312 237.9375 132.765625 238.695312 133.601562 C 239.457031 134.441406 240.195312 135.296875 240.910156 136.171875 C 241.628906 137.042969 242.324219 137.933594 242.996094 138.84375 C 243.671875 139.75 244.320312 140.675781 244.949219 141.617188 C 245.578125 142.554688 246.183594 143.511719 246.765625 144.480469 C 247.347656 145.453125 247.902344 146.433594 248.4375 147.433594 C 248.96875 148.429688 249.476562 149.4375 249.960938 150.460938 C 250.445312 151.484375 250.902344 152.515625 251.335938 153.5625 C 251.769531 154.605469 252.175781 155.660156 252.554688 156.726562 C 252.9375 157.789062 253.292969 158.863281 253.621094 159.945312 C 253.949219 161.027344 254.25 162.117188 254.523438 163.214844 C 254.800781 164.3125 255.046875 165.414062 255.265625 166.523438 C 255.488281 167.632812 255.679688 168.746094 255.847656 169.863281 C 256.011719 170.984375 256.152344 172.105469 256.261719 173.230469 C 256.371094 174.355469 256.457031 175.484375 256.511719 176.613281 C 256.566406 177.742188 256.59375 178.871094 256.59375 180.003906 Z M 256.59375 180.003906 " fill-opacity="1" fill-rule="nonzero"/></g><g clip-path="url(#b1980cd7d8)"><path fill="#ffffff" d="M 243.898438 107.808594 C 243.550781 106.304688 242.855469 104.984375 241.8125 103.847656 C 240.980469 102.5625 239.890625 101.5625 238.542969 100.84375 L 235.757812 99.671875 C 233.691406 99.105469 231.628906 99.105469 229.5625 99.671875 L 226.777344 100.84375 C 225.023438 101.875 223.628906 103.269531 222.597656 105.027344 C 219.605469 111.011719 216.609375 117 213.617188 122.988281 L 204.679688 140.863281 C 201.683594 146.851562 198.691406 152.835938 195.699219 158.824219 L 186.757812 176.703125 C 186.738281 176.738281 186.722656 176.773438 186.703125 176.808594 C 184.953125 173.820312 183.117188 170.882812 181.195312 167.996094 C 179.464844 165.402344 177.667969 162.859375 175.800781 160.363281 C 175.085938 159.015625 174.085938 157.925781 172.800781 157.09375 C 171.605469 156.089844 170.257812 155.386719 168.75 154.984375 C 167.246094 154.585938 165.722656 154.523438 164.191406 154.800781 C 162.621094 154.867188 161.175781 155.328125 159.855469 156.179688 L 157.5 158.003906 C 156.046875 159.453125 155.046875 161.167969 154.5 163.144531 C 154.359375 164.179688 154.222656 165.210938 154.085938 166.242188 C 154.082031 168.347656 154.613281 170.308594 155.679688 172.125 C 162.253906 180.929688 167.957031 190.265625 172.789062 200.136719 C 174.160156 202.933594 175.453125 205.765625 176.671875 208.632812 C 176.925781 209.070312 177.210938 209.488281 177.519531 209.886719 C 177.832031 210.289062 178.167969 210.667969 178.527344 211.023438 C 178.886719 211.382812 179.265625 211.714844 179.671875 212.019531 C 180.074219 212.328125 180.496094 212.605469 180.933594 212.859375 C 181.375 213.113281 181.828125 213.335938 182.296875 213.527344 C 182.765625 213.71875 183.242188 213.882812 183.734375 214.011719 C 184.222656 214.144531 184.71875 214.242188 185.222656 214.304688 C 185.722656 214.371094 186.226562 214.40625 186.734375 214.40625 C 187.242188 214.40625 187.746094 214.371094 188.246094 214.304688 C 188.75 214.242188 189.246094 214.144531 189.734375 214.011719 C 190.226562 213.882812 190.703125 213.71875 191.171875 213.527344 C 191.640625 213.335938 192.09375 213.113281 192.535156 212.859375 C 192.972656 212.605469 193.394531 212.328125 193.796875 212.019531 C 194.203125 211.714844 194.582031 211.382812 194.941406 211.023438 C 195.300781 210.667969 195.636719 210.289062 195.949219 209.886719 C 196.257812 209.488281 196.542969 209.070312 196.796875 208.632812 C 199.789062 202.644531 202.785156 196.660156 205.777344 190.671875 L 214.71875 172.792969 L 223.695312 154.847656 C 226.675781 148.886719 229.65625 142.929688 232.636719 136.96875 L 241.617188 119.007812 L 242.722656 116.789062 C 243.578125 115.46875 244.035156 114.027344 244.105469 112.457031 C 244.460938 110.890625 244.390625 109.339844 243.898438 107.808594 Z M 243.898438 107.808594 " fill-opacity="1" fill-rule="nonzero"/></g><g fill="#ffffff" fill-opacity="0.4"><g transform="translate(133.244258, 273.003833)"><g><path d="M 9.390625 -23.28125 L 0.171875 -23.28125 L 0.171875 -30.015625 L 27.046875 -30.015625 L 27.046875 -23.28125 L 17.875 -23.28125 L 17.875 0 L 9.390625 0 Z M 9.390625 -23.28125 "/></g></g></g><g fill="#ffffff" fill-opacity="0.4"><g transform="translate(157.598319, 273.003833)"><g><path d="M 23.109375 -5.828125 L 10.421875 -5.828125 L 8.0625 0 L -0.59375 0 L 12.640625 -30.015625 L 21.015625 -30.015625 L 34.296875 0 L 25.46875 0 Z M 20.625 -12.09375 L 16.765625 -21.6875 L 12.90625 -12.09375 Z M 20.625 -12.09375 "/></g></g></g><g fill="#ffffff" fill-opacity="0.4"><g transform="translate(188.426893, 273.003833)"><g><path d="M 14.578125 -10.890625 L 11.40625 -7.5 L 11.40625 0 L 3 0 L 3 -30.015625 L 11.40625 -30.015625 L 11.40625 -17.53125 L 23.03125 -30.015625 L 32.375 -30.015625 L 20.109375 -16.71875 L 33.015625 0 L 23.15625 0 Z M 14.578125 -10.890625 "/></g></g></g><g fill="#ffffff" fill-opacity="0.4"><g transform="translate(217.797627, 273.003833)"><g><path d="M 13.546875 0.59375 C 11.117188 0.59375 8.757812 0.296875 6.46875 -0.296875 C 4.1875 -0.898438 2.332031 -1.703125 0.90625 -2.703125 L 3.6875 -8.953125 C 5.03125 -8.066406 6.585938 -7.351562 8.359375 -6.8125 C 10.128906 -6.269531 11.875 -6 13.59375 -6 C 16.851562 -6 18.484375 -6.816406 18.484375 -8.453125 C 18.484375 -9.304688 18.015625 -9.9375 17.078125 -10.34375 C 16.148438 -10.757812 14.660156 -11.195312 12.609375 -11.65625 C 10.347656 -12.144531 8.457031 -12.664062 6.9375 -13.21875 C 5.425781 -13.78125 4.128906 -14.675781 3.046875 -15.90625 C 1.960938 -17.132812 1.421875 -18.789062 1.421875 -20.875 C 1.421875 -22.707031 1.921875 -24.359375 2.921875 -25.828125 C 3.921875 -27.304688 5.410156 -28.472656 7.390625 -29.328125 C 9.378906 -30.179688 11.816406 -30.609375 14.703125 -30.609375 C 16.679688 -30.609375 18.625 -30.382812 20.53125 -29.9375 C 22.445312 -29.5 24.132812 -28.851562 25.59375 -28 L 22.984375 -21.6875 C 20.117188 -23.238281 17.34375 -24.015625 14.65625 -24.015625 C 12.976562 -24.015625 11.75 -23.765625 10.96875 -23.265625 C 10.195312 -22.765625 9.8125 -22.113281 9.8125 -21.3125 C 9.8125 -20.507812 10.269531 -19.90625 11.1875 -19.5 C 12.101562 -19.101562 13.578125 -18.691406 15.609375 -18.265625 C 17.890625 -17.773438 19.78125 -17.25 21.28125 -16.6875 C 22.78125 -16.132812 24.082031 -15.25 25.1875 -14.03125 C 26.289062 -12.820312 26.84375 -11.175781 26.84375 -9.09375 C 26.84375 -7.289062 26.34375 -5.660156 25.34375 -4.203125 C 24.34375 -2.742188 22.84375 -1.578125 20.84375 -0.703125 C 18.84375 0.160156 16.410156 0.59375 13.546875 0.59375 Z M 13.546875 0.59375 "/></g></g></g><g fill="#ffffff" fill-opacity="1"><g transform="translate(131.349055, 271.108635)"><g><path d="M 9.390625 -23.28125 L 0.171875 -23.28125 L 0.171875 -30.015625 L 27.046875 -30.015625 L 27.046875 -23.28125 L 17.875 -23.28125 L 17.875 0 L 9.390625 0 Z M 9.390625 -23.28125 "/></g></g></g><g fill="#ffffff" fill-opacity="1"><g transform="translate(155.703116, 271.108635)"><g><path d="M 23.109375 -5.828125 L 10.421875 -5.828125 L 8.0625 0 L -0.59375 0 L 12.640625 -30.015625 L 21.015625 -30.015625 L 34.296875 0 L 25.46875 0 Z M 20.625 -12.09375 L 16.765625 -21.6875 L 12.90625 -12.09375 Z M 20.625 -12.09375 "/></g></g></g><g fill="#ffffff" fill-opacity="1"><g transform="translate(186.53169, 271.108635)"><g><path d="M 14.578125 -10.890625 L 11.40625 -7.5 L 11.40625 0 L 3 0 L 3 -30.015625 L 11.40625 -30.015625 L 11.40625 -17.53125 L 23.03125 -30.015625 L 32.375 -30.015625 L 20.109375 -16.71875 L 33.015625 0 L 23.15625 0 Z M 14.578125 -10.890625 "/></g></g></g><g fill="#ffffff" fill-opacity="1"><g transform="translate(215.902424, 271.108635)"><g><path d="M 13.546875 0.59375 C 11.117188 0.59375 8.757812 0.296875 6.46875 -0.296875 C 4.1875 -0.898438 2.332031 -1.703125 0.90625 -2.703125 L 3.6875 -8.953125 C 5.03125 -8.066406 6.585938 -7.351562 8.359375 -6.8125 C 10.128906 -6.269531 11.875 -6 13.59375 -6 C 16.851562 -6 18.484375 -6.816406 18.484375 -8.453125 C 18.484375 -9.304688 18.015625 -9.9375 17.078125 -10.34375 C 16.148438 -10.757812 14.660156 -11.195312 12.609375 -11.65625 C 10.347656 -12.144531 8.457031 -12.664062 6.9375 -13.21875 C 5.425781 -13.78125 4.128906 -14.675781 3.046875 -15.90625 C 1.960938 -17.132812 1.421875 -18.789062 1.421875 -20.875 C 1.421875 -22.707031 1.921875 -24.359375 2.921875 -25.828125 C 3.921875 -27.304688 5.410156 -28.472656 7.390625 -29.328125 C 9.378906 -30.179688 11.816406 -30.609375 14.703125 -30.609375 C 16.679688 -30.609375 18.625 -30.382812 20.53125 -29.9375 C 22.445312 -29.5 24.132812 -28.851562 25.59375 -28 L 22.984375 -21.6875 C 20.117188 -23.238281 17.34375 -24.015625 14.65625 -24.015625 C 12.976562 -24.015625 11.75 -23.765625 10.96875 -23.265625 C 10.195312 -22.765625 9.8125 -22.113281 9.8125 -21.3125 C 9.8125 -20.507812 10.269531 -19.90625 11.1875 -19.5 C 12.101562 -19.101562 13.578125 -18.691406 15.609375 -18.265625 C 17.890625 -17.773438 19.78125 -17.25 21.28125 -16.6875 C 22.78125 -16.132812 24.082031 -15.25 25.1875 -14.03125 C 26.289062 -12.820312 26.84375 -11.175781 26.84375 -9.09375 C 26.84375 -7.289062 26.34375 -5.660156 25.34375 -4.203125 C 24.34375 -2.742188 22.84375 -1.578125 20.84375 -0.703125 C 18.84375 0.160156 16.410156 0.59375 13.546875 0.59375 Z M 13.546875 0.59375 "/></g></g></g></svg>